<svg width="24" height="24" viewBox="0 0 24 24" fill="none" xmlns="http://www.w3.org/2000/svg">
<path d="M12.0004 22.7595C10.9104 22.7595 9.83039 22.4395 8.98039 21.8095L4.68039 18.5995C3.54039 17.7495 2.65039 15.9695 2.65039 14.5595V7.11945C2.65039 5.57945 3.78039 3.93945 5.23039 3.39945L10.2204 1.52945C11.2104 1.15945 12.7704 1.15945 13.7604 1.52945L18.7504 3.39945C20.2004 3.93945 21.3304 5.57945 21.3304 7.11945V14.5495C21.3304 15.9695 20.4404 17.7395 19.3004 18.5895L15.0004 21.7995C14.1704 22.4395 13.0904 22.7595 12.0004 22.7595ZM10.7504 2.93945L5.76039 4.80945C4.91039 5.12945 4.16039 6.20945 4.16039 7.12945V14.5595C4.16039 15.5095 4.83039 16.8395 5.58039 17.3995L9.88039 20.6095C11.0304 21.4695 12.9704 21.4695 14.1304 20.6095L18.4304 17.3995C19.1904 16.8295 19.8504 15.5095 19.8504 14.5595V7.11945C19.8504 6.20945 19.1004 5.12945 18.2504 4.79945L13.2604 2.92945C12.5804 2.68945 11.4204 2.68945 10.7504 2.93945Z" fill="#7B7C86"/>
<path d="M10.6602 14.2291C10.4702 14.2291 10.2802 14.1591 10.1302 14.0091L8.52023 12.3991C8.23023 12.1091 8.23023 11.6291 8.52023 11.3391C8.81023 11.0491 9.29023 11.0491 9.58023 11.3391L10.6602 12.4191L14.4302 8.64914C14.7202 8.35914 15.2002 8.35914 15.4902 8.64914C15.7802 8.93914 15.7802 9.41914 15.4902 9.70914L11.1902 14.0091C11.0402 14.1591 10.8502 14.2291 10.6602 14.2291Z" fill="#7B7C86"/>
</svg>
