<svg width="24" height="24" viewBox="0 0 24 24" fill="none" xmlns="http://www.w3.org/2000/svg">
<path fill-rule="evenodd" clip-rule="evenodd" d="M14.2198 20.9902C14.2198 20.2299 13.6033 19.6134 12.843 19.6134C12.3067 19.6134 11.6933 19.6134 11.157 19.6134C10.7919 19.6134 10.4417 19.7585 10.1835 20.0167C9.9253 20.2749 9.78023 20.6251 9.78023 20.9902C9.78023 21.7506 10.3967 22.367 11.157 22.367C11.6933 22.367 12.3067 22.367 12.843 22.367C13.6033 22.367 14.2198 21.7506 14.2198 20.9902ZM3.89442 17.44C4.12439 17.4576 4.40261 17.4677 4.68208 17.4513C4.83096 18.2064 5.20084 18.9067 5.75295 19.4588C6.48591 20.1917 7.47999 20.6035 8.51652 20.6035H9.04186C9.0187 20.7303 9.0068 20.8597 9.0068 20.9902C9.0068 21.1223 9.0187 21.2516 9.04152 21.377H8.51652C7.27486 21.377 6.08402 20.8837 5.20604 20.0057C4.50561 19.3053 4.05001 18.4057 3.89442 17.44ZM3.501 16.617C2.89037 16.5141 2.32215 16.2238 1.87858 15.7802C1.31604 15.2176 1 14.4546 1 13.6591C1 13.0746 1 12.4155 1 11.8311C1 11.0355 1.31604 10.2725 1.87858 9.70995C2.44113 9.1474 3.20412 8.83132 3.99969 8.83132H4.19937C4.51854 4.80275 7.88909 1.63281 12 1.63281C16.1109 1.63281 19.4815 4.80275 19.8006 8.83132H20.0003C20.7959 8.83132 21.5589 9.1474 22.1214 9.70995C22.684 10.2725 23 11.0355 23 11.8311V13.6591C23 14.4546 22.684 15.2176 22.1214 15.7802C21.5589 16.3428 20.7959 16.6588 20.0003 16.6588H19.1151C18.748 16.6588 18.4504 16.3612 18.4504 15.9941V9.4582C18.4504 5.89574 15.5625 3.00781 12 3.00781C8.43755 3.00781 5.54962 5.89574 5.54962 9.4582C5.54962 9.4582 5.54962 14.2113 5.54962 15.9941C5.54962 16.2533 5.40125 16.4779 5.18477 16.5875C4.58888 16.7943 3.66475 16.6447 3.501 16.617Z" fill="#7B7C86"/>
</svg>
