<svg width="24" height="24" viewBox="0 0 24 24" fill="none" xmlns="http://www.w3.org/2000/svg">
<path d="M19.5371 4.20898C21.2453 4.20907 22.3008 5.26442 22.3008 6.97266V7.97754C22.3007 9.22707 21.7345 10.1243 20.7627 10.5176V18.0264C20.7626 21.4629 19.4259 22.7998 15.9893 22.7998H7.9502C4.51387 22.7997 3.17779 21.4628 3.17773 18.0264V10.5098C2.22511 10.1203 1.70026 9.24678 1.7002 7.97754V6.97266C1.7002 5.21411 2.70532 4.20898 4.46387 4.20898H19.5371ZM4.46387 5.7168C3.54942 5.7168 3.20801 6.05821 3.20801 6.97266V7.97754C3.20807 8.89181 3.5495 9.2334 4.46387 9.2334H8.03906C7.72294 9.68569 7.4819 10.1939 7.33496 10.7412H4.68457V18.0264C4.6846 20.6187 5.35801 21.2919 7.9502 21.292H15.9893C18.5818 21.292 19.2558 20.6188 19.2559 18.0264V10.7412H16.666C16.5191 10.194 16.278 9.68567 15.9619 9.2334H19.5371C20.4212 9.23334 20.7929 8.86159 20.793 7.97754V6.97266C20.793 6.08843 20.4213 5.71686 19.5371 5.7168H4.46387Z" fill="#7B7C86"/>
<path d="M11.6387 5.71617H6.09175C5.88072 5.71617 5.67974 5.62574 5.53906 5.475C4.92608 4.80173 4.94618 3.7667 5.5893 3.12357L7.01624 1.69664C7.67946 1.03341 8.77479 1.03341 9.43801 1.69664L12.1713 4.42992C12.3823 4.64095 12.4527 4.97256 12.3321 5.25393C12.2215 5.5353 11.9502 5.71617 11.6387 5.71617ZM6.64443 4.20885H9.82992L8.37283 2.76181C8.29244 2.68142 8.16181 2.68142 8.08142 2.76181L6.65448 4.18875C6.65448 4.1988 6.64443 4.1988 6.64443 4.20885Z" fill="#7B7C86"/>
<path d="M17.8988 5.71617H12.3518C12.0503 5.71617 11.769 5.5353 11.6584 5.25393C11.5378 4.97256 11.6082 4.651 11.8192 4.42992L14.5525 1.69664C15.2157 1.03341 16.311 1.03341 16.9743 1.69664L18.4012 3.12357C19.0443 3.7667 19.0745 4.80173 18.4514 5.475C18.3108 5.62574 18.1098 5.71617 17.8988 5.71617ZM14.1807 4.20885H17.3662C17.3561 4.1988 17.3561 4.1988 17.3461 4.18875L15.9191 2.76181C15.8387 2.68142 15.7081 2.68142 15.6277 2.76181L14.1807 4.20885Z" fill="#7B7C86"/>
<path d="M11.933 18.8568C11.5878 18.8568 11.308 18.5769 11.308 18.2318V18.0035C11.308 17.6583 11.5878 17.3785 11.933 17.3785H12.1862C12.5314 17.3785 12.8112 17.6583 12.8112 18.0035V18.2318C12.8112 18.5769 12.5314 18.8568 12.1862 18.8568H11.933ZM11.933 8.87673C11.5878 8.87673 11.308 8.59691 11.308 8.25173V8.02344C11.308 7.67826 11.5878 7.39844 11.933 7.39844H12.1862C12.5314 7.39844 12.8112 7.67826 12.8112 8.02344V8.25173C12.8112 8.59691 12.5314 8.87673 12.1862 8.87673H11.933ZM12.0939 17.8026C11.4618 17.8026 10.8963 17.6862 10.3973 17.4533C9.8983 17.2204 9.48871 16.8919 9.16852 16.4678C8.96712 16.1975 8.81217 15.8951 8.70365 15.5607C8.59784 15.2345 8.83627 14.9148 9.17486 14.8607L9.46998 14.8136C9.79516 14.7617 10.0945 14.9779 10.2444 15.2711C10.3788 15.5342 10.5628 15.7584 10.7965 15.9438C11.1832 16.2432 11.6448 16.3929 12.1812 16.3929C12.6969 16.3929 13.121 16.2723 13.4537 16.0312C13.7864 15.7858 13.9527 15.476 13.9527 15.1018C13.9527 14.8398 13.8737 14.6277 13.7157 14.4655C13.5576 14.2992 13.304 14.162 12.9547 14.0539L10.7903 13.3802C9.53029 12.9893 8.9003 12.2242 8.9003 11.0848C8.9003 10.5525 9.02713 10.0889 9.28079 9.69384C9.53861 9.29464 9.90038 8.989 10.3661 8.77693C10.8319 8.56069 11.3808 8.45466 12.0128 8.45882C12.5991 8.46297 13.121 8.56901 13.5784 8.77693C14.04 8.98485 14.4226 9.28425 14.7261 9.67513C14.9098 9.90837 15.0615 10.1697 15.1815 10.4592C15.3183 10.7896 15.0861 11.1385 14.7344 11.2026L14.4465 11.2551C14.1103 11.3163 13.7987 11.0866 13.6309 10.789C13.5911 10.7183 13.5465 10.6506 13.4974 10.5858C13.3269 10.3613 13.1127 10.1866 12.8549 10.0619C12.5971 9.93711 12.3101 9.87057 11.9941 9.86226C11.6906 9.8581 11.4182 9.90592 11.177 10.0057C10.9358 10.1014 10.7445 10.2386 10.6031 10.4174C10.4618 10.592 10.3911 10.7896 10.3911 11.01C10.3911 11.2553 10.4888 11.4653 10.6842 11.6399C10.8838 11.8146 11.1978 11.9643 11.6261 12.0891L13.2416 12.5569C14.0192 12.7814 14.5785 13.0871 14.9195 13.4738C15.2646 13.8563 15.4372 14.3657 15.4372 15.002C15.4372 15.5592 15.2979 16.0478 15.0193 16.4678C14.7407 16.8878 14.3498 17.2163 13.8467 17.4533C13.3435 17.6862 12.7592 17.8026 12.0939 17.8026Z" fill="#7B7C86"/>
</svg>
