<svg width="32" height="32" viewBox="0 0 32 32" fill="none" xmlns="http://www.w3.org/2000/svg">
<g clip-path="url(#clip0_2_21474)">
<path d="M15.9997 0C11.7718 0.0123329 7.7217 1.70207 4.7387 4.69815C1.7557 7.69424 0.0836943 11.7517 0.0898607 15.9796C0.0960272 20.2074 1.77986 24.26 4.77159 27.2474C7.76331 30.2347 11.8183 31.9127 16.0462 31.9127C20.2741 31.9127 24.3291 30.2347 27.3208 27.2474C30.3126 24.26 31.9964 20.2074 32.0026 15.9796C32.0087 11.7517 30.3367 7.69424 27.3537 4.69815C24.3707 1.70207 20.3206 0.0123329 16.0928 0L15.9997 0Z" fill="#345D9D"/>
<path d="M16.2909 16.3579L14.8814 21.091H22.3811C22.4306 21.0885 22.4802 21.0964 22.5265 21.1143C22.5728 21.1317 22.6153 21.1578 22.6516 21.1914C22.6877 21.2258 22.7168 21.2667 22.7374 21.3121C22.7593 21.3576 22.7712 21.4071 22.7723 21.4576V21.5812L22.1192 23.8314C22.0913 23.9381 22.027 24.0317 21.9374 24.0961C21.8487 24.1612 21.7404 24.194 21.6305 24.1892H10.1541L12.0771 17.6437L9.92578 18.2954L10.4145 16.7957L12.5658 16.1426L15.2727 6.93537C15.302 6.82929 15.3667 6.73641 15.456 6.6721C15.5443 6.60701 15.6518 6.57323 15.7614 6.5761H18.6705C18.7201 6.57482 18.7695 6.58322 18.816 6.60082C18.8629 6.61785 18.9059 6.64406 18.9425 6.67791C18.9792 6.71173 19.0085 6.75285 19.0283 6.79864C19.0492 6.84437 19.0606 6.89385 19.0618 6.9441V7.06919L16.7796 14.8292L18.9323 14.1761L18.4727 15.7383L16.2909 16.3579Z" fill="white"/>
</g>
<defs>
<clipPath id="clip0_2_21474">
<rect width="32" height="32" fill="white"/>
</clipPath>
</defs>
</svg>
